<?xml version="1.0" standalone="no"?>
<!DOCTYPE svg PUBLIC "-//W3C//DTD SVG 20010904//EN"
 "http://www.w3.org/TR/2001/REC-SVG-20010904/DTD/svg10.dtd">
<svg version="1.0" xmlns="http://www.w3.org/2000/svg"
 width="333.000000pt" height="333.000000pt" viewBox="0 0 333.000000 333.000000"
 preserveAspectRatio="xMidYMid meet">
<metadata>
Created by potrace 1.11, written by Peter Selinger 2001-2013
</metadata>
<g transform="translate(0.000000,333.000000) scale(0.100000,-0.100000)"
fill="#000000" stroke="none">
<path d="M0 1665 l0 -1665 824 0 825 0 4 43 4 42 1 -42 2 -43 835 0 835 0 0
1665 0 1665 -1665 0 -1665 0 0 -1665z m1362 1479 c-3 -24 -7 -32 -13 -23 -4 7
-6 16 -5 19 2 3 6 13 9 23 10 27 13 20 9 -19z m34 -64 c5 -5 20 -11 34 -13 21
-3 26 -12 37 -58 39 -181 93 -348 114 -359 16 -9 44 -65 40 -82 0 -5 77 -9
171 -10 l173 -2 -145 -6 -145 -5 100 -6 c88 -4 80 -5 -65 -7 -164 -2 -165 -2
-130 -20 24 -12 37 -27 42 -49 9 -36 22 -41 47 -19 9 7 41 16 71 19 40 5 51 4
40 -4 -11 -8 -12 -12 -2 -16 6 -2 12 -11 12 -19 0 -28 50 -112 78 -133 17 -12
34 -37 41 -63 l13 -43 22 28 22 27 18 -49 c9 -27 24 -52 32 -55 9 -4 12 -14 8
-36 -6 -30 9 -43 19 -17 3 7 6 4 6 -6 1 -10 8 -32 17 -49 12 -23 18 -28 24
-17 7 10 11 7 19 -13 5 -14 18 -28 28 -30 10 -2 -220 -3 -511 -1 -290 1 -531
4 -533 7 -7 7 23 180 41 236 l14 45 1 -55 2 -55 23 70 c26 74 143 295 158 295
4 0 8 -4 8 -8 0 -5 7 -17 16 -28 8 -10 13 -13 9 -6 -3 6 0 12 7 12 7 0 21 12
31 25 18 25 18 25 -5 25 -19 0 -20 2 -8 10 10 7 -8 10 -60 11 -41 1 -66 4 -56
6 55 14 68 76 66 313 -1 102 -2 193 -1 203 1 19 40 24 57 7z m-201 -450 c8
-16 15 -36 15 -45 0 -8 8 -15 18 -16 9 -1 3 -6 -15 -11 -30 -10 -32 -14 -71
-157 -69 -248 -99 -468 -109 -796 -6 -172 -9 -203 -17 -170 -8 31 -37 66 -128
159 -106 109 -118 119 -134 105 -13 -11 -18 -11 -21 -1 -3 6 -9 12 -15 12 -14
0 -77 72 -78 88 0 6 -4 12 -10 12 -5 0 -10 5 -10 10 0 23 -46 80 -65 80 -52 1
-64 11 -74 64 -13 73 -11 196 3 226 7 14 16 40 19 58 4 18 15 42 26 53 11 12
22 33 26 47 14 58 95 110 95 63 0 -11 4 -22 8 -25 5 -3 26 -58 47 -123 37
-115 74 -183 98 -183 21 0 37 38 44 101 5 48 11 64 29 75 12 8 32 39 43 67 16
38 31 58 54 70 21 12 41 35 57 69 34 72 80 139 91 132 5 -3 9 -2 8 3 -3 18 2
32 17 47 22 23 31 20 49 -14z m753 -97 c-10 -2 -26 -2 -35 0 -10 3 -2 5 17 5
19 0 27 -2 18 -5z m-229 -49 c2 -2 2 -7 -2 -10 -9 -9 -57 5 -57 16 0 9 47 4
59 -6z m458 -236 c-3 -8 -6 -5 -6 6 -1 11 2 17 5 13 3 -3 4 -12 1 -19z m10
-40 c-3 -8 -6 -5 -6 6 -1 11 2 17 5 13 3 -3 4 -12 1 -19z m10 -50 c-3 -7 -5
-2 -5 12 0 14 2 19 5 13 2 -7 2 -19 0 -25z m32 -168 c-1 -37 -16 28 -22 99
l-6 56 14 -65 c8 -36 14 -76 14 -90z m122 43 l51 -47 30 17 c50 29 55 24 62
-59 4 -42 22 -122 41 -178 18 -55 36 -113 39 -128 3 -15 15 -29 25 -33 21 -6
66 -74 55 -84 -3 -3 -25 -28 -47 -55 -48 -57 -80 -89 -128 -128 -19 -15 -58
-49 -87 -76 l-53 -49 21 -36 c15 -25 29 -37 44 -37 35 0 86 -29 98 -56 8 -17
19 -24 38 -24 25 0 28 -4 33 -43 8 -56 0 -82 -28 -101 -20 -13 -22 -20 -16
-44 7 -22 5 -28 -8 -28 -9 -1 -28 -4 -43 -7 -15 -3 -30 -1 -33 4 -11 17 -22 9
-37 -30 -21 -53 -64 -75 -128 -66 -49 7 -110 37 -110 55 0 5 -5 10 -10 10 -6
0 -3 -11 5 -24 9 -13 18 -45 21 -72 9 -75 1 -78 -226 -71 -58 2 -121 9 -141
15 -26 9 -44 10 -64 2 -34 -13 -38 -10 -30 23 8 32 50 73 60 58 3 -7 1 -10 -6
-9 -6 2 -14 -3 -16 -10 -4 -10 1 -10 21 -1 24 11 25 14 11 29 -18 20 -10 30
49 54 44 18 49 19 42 8 -3 -5 4 -8 15 -7 11 1 36 19 57 40 37 39 32 39 -22 1
-52 -35 -19 0 41 44 64 48 162 158 199 224 13 23 37 83 54 133 52 161 60 373
24 680 -19 161 -19 153 16 153 23 0 44 -12 81 -47z m-447 -94 c82 -1 120 -4
101 -9 -48 -12 -573 -12 -580 1 -5 7 33 8 122 5 86 -4 118 -2 98 4 -22 7 -9 8
49 5 43 -3 138 -6 210 -6z m-1283 -196 c8 -10 23 -35 33 -55 11 -21 22 -38 26
-38 10 0 100 -91 100 -101 0 -4 -9 -11 -20 -14 -26 -8 -60 13 -97 61 -15 20
-37 46 -48 58 -43 45 -64 78 -58 92 7 20 47 18 64 -3z m732 -867 c29 -18 80
-48 114 -66 78 -41 119 -90 114 -137 -1 -17 -64 -17 -154 1 -40 8 -127 16
-195 19 -90 4 -129 10 -147 21 -66 43 7 96 105 77 30 -6 75 -13 98 -16 40 -4
43 -3 30 13 -21 27 -26 34 -63 91 -19 29 -35 57 -35 61 0 4 -7 13 -16 20 -8 8
-24 31 -34 52 -18 38 -16 37 56 -32 41 -39 98 -86 127 -104z m312 -116 c-3 -5
-13 -10 -21 -10 -8 0 -12 5 -9 10 3 6 13 10 21 10 8 0 12 -4 9 -10z m-1 -331
c-9 -216 -9 -220 -15 -114 -9 154 -10 320 -3 340 4 10 10 13 16 7 6 -6 7 -92
2 -233z"/>
<path d="M1608 2543 c6 -2 18 -2 25 0 6 3 1 5 -13 5 -14 0 -19 -2 -12 -5z"/>
<path d="M1745 2440 c3 -5 8 -10 11 -10 2 0 4 5 4 10 0 6 -5 10 -11 10 -5 0
-7 -4 -4 -10z"/>
</g>
</svg>
